<svg width="256" height="247" viewBox="0 0 256 247" fill="none" xmlns="http://www.w3.org/2000/svg">
<path d="M113.75 23.75V25.555C109.807 23.9875 105.58 23.18 101.352 23.18C94.6075 23.18 87.8625 25.2225 82.115 29.3075C79.6925 31.0175 79.4075 34.485 81.4975 36.575L93.705 48.7825H98.9775V54.055C103.062 58.14 108.382 60.2775 113.75 60.515V71.25H104.25C101.637 71.25 99.5 73.3875 99.5 76V85.5C99.5 90.725 103.775 95 109 95H156.5C164.385 95 170.75 88.635 170.75 80.75V23.75C170.75 21.1375 168.612 19 166 19H118.5C115.887 19 113.75 21.1375 113.75 23.75ZM108.477 49.4475V39.235H97.6475L92.7075 34.295C95.415 33.25 98.36 32.68 101.352 32.68C107.717 32.68 113.655 35.15 118.168 39.615L124.865 46.3125L123.915 47.2625C121.493 49.685 118.262 51.0625 114.795 51.0625C112.562 51.0625 110.377 50.4925 108.477 49.4475ZM161.25 80.75C161.25 83.3625 159.112 85.5 156.5 85.5C153.887 85.5 151.75 83.3625 151.75 80.75V76C151.75 73.3875 149.612 71.25 147 71.25H123.25V58.9475C125.957 57.855 128.475 56.24 130.66 54.055L131.61 53.105L145.052 66.5H151.75V59.8025L123.25 31.445V28.5H161.25V80.75Z" fill="#059669"/>
<path d="M47.8164 182.432C46.5044 182.432 45.5444 182.016 44.9364 181.184C44.3284 180.32 44.3924 179.28 45.1284 178.064L62.3124 150.272C62.8564 149.376 63.4484 148.736 64.0884 148.352C64.7284 147.936 65.5444 147.728 66.5364 147.728C68.5204 147.728 69.8164 148.752 70.4244 150.8L78.5364 177.92C78.9844 179.424 78.8884 180.56 78.2484 181.328C77.6404 182.064 76.7604 182.432 75.6084 182.432C74.5524 182.432 73.7364 182.176 73.1604 181.664C72.5844 181.12 72.1524 180.288 71.8644 179.168L70.7124 174.656H54.7764L51.5124 180.272C50.6484 181.712 49.4164 182.432 47.8164 182.432ZM65.6724 156.08L58.1844 168.848H69.1284L65.7684 156.08H65.6724ZM97.013 182.528C95.349 182.528 93.877 182.176 92.597 181.472C91.317 180.736 90.373 179.664 89.765 178.256L89.669 178.784C89.317 181.216 87.989 182.432 85.685 182.432C84.533 182.432 83.685 182.064 83.141 181.328C82.629 180.56 82.469 179.52 82.661 178.208L86.933 151.376C87.317 148.944 88.709 147.728 91.109 147.728C92.229 147.728 93.045 148.112 93.557 148.88C94.101 149.616 94.277 150.64 94.085 151.952L92.549 161.648C93.445 160.464 94.533 159.552 95.813 158.912C97.093 158.272 98.517 157.952 100.085 157.952C102.741 157.952 104.869 158.864 106.469 160.688C108.069 162.512 108.869 164.992 108.869 168.128C108.869 170.848 108.389 173.296 107.429 175.472C106.469 177.648 105.093 179.376 103.301 180.656C101.541 181.904 99.445 182.528 97.013 182.528ZM95.525 177.104C97.445 177.104 98.933 176.288 99.989 174.656C101.045 173.024 101.573 170.976 101.573 168.512C101.573 166.848 101.173 165.584 100.373 164.72C99.605 163.824 98.533 163.376 97.157 163.376C95.237 163.376 93.749 164.192 92.693 165.824C91.637 167.456 91.109 169.488 91.109 171.92C91.109 173.584 91.493 174.864 92.261 175.76C93.061 176.656 94.149 177.104 95.525 177.104ZM121.366 182.528C119.862 182.528 118.39 182.384 116.95 182.096C115.542 181.84 114.326 181.472 113.302 180.992C112.406 180.608 111.814 180.08 111.526 179.408C111.27 178.704 111.254 178.032 111.478 177.392C111.734 176.752 112.166 176.288 112.774 176C113.382 175.68 114.118 175.712 114.982 176.096C117.062 177.056 119.174 177.536 121.318 177.536C122.694 177.536 123.718 177.296 124.39 176.816C125.094 176.336 125.446 175.728 125.446 174.992C125.446 173.936 124.678 173.264 123.142 172.976L118.774 172.16C116.918 171.808 115.478 171.104 114.454 170.048C113.43 168.992 112.918 167.648 112.918 166.016C112.918 164.576 113.334 163.248 114.166 162.032C115.03 160.784 116.294 159.792 117.958 159.056C119.622 158.32 121.67 157.952 124.102 157.952C125.158 157.952 126.31 158.08 127.558 158.336C128.806 158.592 129.91 158.96 130.87 159.44C131.734 159.856 132.294 160.4 132.55 161.072C132.806 161.712 132.806 162.336 132.55 162.944C132.294 163.552 131.846 163.984 131.206 164.24C130.566 164.496 129.814 164.448 128.95 164.096C127.286 163.296 125.542 162.896 123.718 162.896C122.278 162.896 121.19 163.152 120.454 163.664C119.75 164.176 119.398 164.832 119.398 165.632C119.398 166.08 119.542 166.48 119.83 166.832C120.15 167.152 120.662 167.376 121.366 167.504L125.686 168.32C129.846 169.088 131.926 171.136 131.926 174.464C131.926 177.056 130.95 179.056 128.998 180.464C127.078 181.84 124.534 182.528 121.366 182.528ZM143.407 182.528C140.911 182.528 138.975 181.728 137.599 180.128C136.223 178.496 135.823 175.936 136.399 172.448L138.175 161.408C138.495 159.168 139.807 158.048 142.111 158.048C143.295 158.048 144.175 158.4 144.751 159.104C145.327 159.776 145.519 160.752 145.327 162.032L143.695 172.352C143.471 173.856 143.583 174.992 144.031 175.76C144.479 176.496 145.311 176.864 146.527 176.864C148.063 176.864 149.311 176.352 150.271 175.328C151.263 174.272 151.903 172.832 152.191 171.008L153.727 161.408C154.047 159.168 155.343 158.048 157.615 158.048C158.863 158.048 159.759 158.4 160.303 159.104C160.879 159.808 161.055 160.784 160.831 162.032L158.191 179.024C157.839 181.296 156.527 182.432 154.255 182.432C151.887 182.432 150.879 181.184 151.231 178.688L151.279 178.304C150.383 179.712 149.263 180.768 147.919 181.472C146.575 182.176 145.071 182.528 143.407 182.528ZM166.919 182.432C165.735 182.432 164.871 182.08 164.327 181.376C163.815 180.64 163.671 179.632 163.895 178.352L166.535 161.504C166.887 159.2 168.231 158.048 170.567 158.048C171.719 158.048 172.551 158.4 173.063 159.104C173.575 159.808 173.735 160.8 173.543 162.08L173.447 162.464C174.215 161.088 175.239 160.016 176.519 159.248C177.799 158.448 179.255 158.016 180.887 157.952C181.847 157.92 182.519 158.096 182.903 158.48C183.287 158.864 183.479 159.472 183.479 160.304C183.479 161.616 183.191 162.576 182.615 163.184C182.039 163.76 181.127 164.112 179.879 164.24L178.295 164.384C176.375 164.576 174.999 165.152 174.167 166.112C173.367 167.04 172.823 168.4 172.535 170.192L171.143 178.928C170.791 181.264 169.383 182.432 166.919 182.432ZM192.039 182.528C189.383 182.528 187.255 181.616 185.655 179.792C184.055 177.936 183.255 175.44 183.255 172.304C183.255 169.584 183.735 167.152 184.695 165.008C185.655 162.832 187.015 161.12 188.775 159.872C190.567 158.592 192.679 157.952 195.111 157.952C196.743 157.952 198.183 158.304 199.431 159.008C200.679 159.68 201.623 160.688 202.263 162.032L203.943 151.232C204.327 148.896 205.719 147.728 208.119 147.728C209.271 147.728 210.103 148.096 210.615 148.832C211.159 149.536 211.319 150.56 211.095 151.904L206.823 178.736C206.439 181.2 205.063 182.432 202.695 182.432C201.607 182.432 200.807 182.08 200.295 181.376C199.815 180.672 199.655 179.712 199.815 178.496C198.919 179.744 197.799 180.736 196.455 181.472C195.111 182.176 193.639 182.528 192.039 182.528ZM194.967 177.104C196.247 177.104 197.335 176.736 198.231 176C199.127 175.232 199.815 174.208 200.295 172.928C200.775 171.616 201.015 170.144 201.015 168.512C201.015 166.848 200.615 165.584 199.815 164.72C199.047 163.824 197.975 163.376 196.599 163.376C194.679 163.376 193.191 164.192 192.135 165.824C191.079 167.456 190.551 169.488 190.551 171.92C190.551 173.584 190.935 174.864 191.703 175.76C192.503 176.656 193.591 177.104 194.967 177.104ZM4.62106 236.432C3.30906 236.432 2.34906 236.016 1.74106 235.184C1.13306 234.32 1.19706 233.28 1.93306 232.064L19.1171 204.272C19.6611 203.376 20.2531 202.736 20.8931 202.352C21.5331 201.936 22.3491 201.728 23.3411 201.728C25.3251 201.728 26.6211 202.752 27.2291 204.8L35.3411 231.92C35.7891 233.424 35.6931 234.56 35.0531 235.328C34.4451 236.064 33.5651 236.432 32.4131 236.432C31.3571 236.432 30.5411 236.176 29.9651 235.664C29.3891 235.12 28.9571 234.288 28.6691 233.168L27.5171 228.656H11.5811L8.31706 234.272C7.45306 235.712 6.22106 236.432 4.62106 236.432ZM22.4771 210.08L14.9891 222.848H25.9331L22.5731 210.08H22.4771ZM42.4417 236.336C41.3217 236.336 40.4897 235.968 39.9457 235.232C39.4337 234.496 39.2897 233.456 39.5137 232.112L42.1057 215.648C42.4577 213.248 43.8337 212.048 46.2337 212.048C47.3217 212.048 48.1217 212.384 48.6337 213.056C49.1777 213.696 49.3377 214.656 49.1137 215.936V216.032C50.8417 213.312 53.4977 211.952 57.0817 211.952C59.6417 211.952 61.5937 212.752 62.9377 214.352C64.3137 215.952 64.7297 218.496 64.1857 221.984L62.4577 232.736C62.1057 235.136 60.7137 236.336 58.2817 236.336C57.1617 236.336 56.3297 235.968 55.7857 235.232C55.2737 234.496 55.1137 233.456 55.3057 232.112L56.8897 222.128C57.4017 219.088 56.4257 217.568 53.9617 217.568C52.3297 217.568 51.0177 218.096 50.0257 219.152C49.0337 220.176 48.3937 221.6 48.1057 223.424L46.6177 232.736C46.2657 235.136 44.8737 236.336 42.4417 236.336ZM80.2046 236.528C77.7406 236.528 75.5966 236.08 73.7726 235.184C71.9486 234.256 70.5406 232.992 69.5486 231.392C68.5566 229.76 68.0606 227.856 68.0606 225.68C68.0606 222.992 68.6206 220.624 69.7406 218.576C70.8926 216.496 72.4606 214.88 74.4446 213.728C76.4606 212.544 78.7486 211.952 81.3086 211.952C83.9646 211.952 86.0766 212.544 87.6446 213.728C89.2126 214.88 90.2846 216.384 90.8606 218.24C91.4366 220.064 91.6126 222 91.3886 224.048C91.2926 224.784 91.0846 225.264 90.7646 225.488C90.4446 225.68 90.0126 225.776 89.4686 225.776H74.7806C74.8126 227.472 75.3566 228.784 76.4126 229.712C77.4686 230.64 78.9726 231.104 80.9246 231.104C81.7566 231.104 82.6526 231.008 83.6126 230.816C84.6046 230.624 85.4846 230.336 86.2526 229.952C87.1486 229.504 87.8846 229.424 88.4606 229.712C89.0686 229.968 89.4686 230.416 89.6606 231.056C89.8526 231.696 89.8046 232.368 89.5166 233.072C89.2606 233.744 88.7326 234.288 87.9326 234.704C86.8126 235.344 85.5486 235.808 84.1406 236.096C82.7326 236.384 81.4206 236.528 80.2046 236.528ZM81.2606 216.752C79.5326 216.752 78.1886 217.28 77.2286 218.336C76.2686 219.36 75.6286 220.592 75.3086 222.032H85.7726C85.8686 220.528 85.5486 219.28 84.8126 218.288C84.1086 217.264 82.9246 216.752 81.2606 216.752ZM106.164 236.528C102.228 236.528 99.2843 235.536 97.3323 233.552C95.3803 231.536 94.4043 228.896 94.4043 225.632C94.4043 223.872 94.6763 222.176 95.2203 220.544C95.7963 218.912 96.6443 217.456 97.7643 216.176C98.8843 214.864 100.308 213.84 102.036 213.104C103.796 212.336 105.844 211.952 108.18 211.952C109.3 211.952 110.34 212.064 111.3 212.288C112.292 212.48 113.22 212.768 114.084 213.152C115.044 213.536 115.652 214.08 115.908 214.784C116.196 215.488 116.212 216.192 115.956 216.896C115.732 217.568 115.316 218.08 114.708 218.432C114.132 218.752 113.46 218.752 112.692 218.432C111.38 217.792 110.052 217.472 108.708 217.472C107.012 217.472 105.652 217.872 104.628 218.672C103.636 219.472 102.916 220.496 102.468 221.744C102.02 222.96 101.796 224.224 101.796 225.536C101.796 227.168 102.212 228.48 103.044 229.472C103.908 230.464 105.316 230.96 107.268 230.96C107.748 230.96 108.308 230.896 108.948 230.768C109.62 230.608 110.308 230.368 111.012 230.048C111.684 229.76 112.276 229.776 112.788 230.096C113.332 230.416 113.716 230.896 113.94 231.536C114.164 232.176 114.148 232.832 113.892 233.504C113.668 234.176 113.108 234.736 112.212 235.184C111.412 235.6 110.436 235.92 109.284 236.144C108.164 236.4 107.124 236.528 106.164 236.528ZM125.593 236.528C122.937 236.528 120.809 235.616 119.209 233.792C117.609 231.936 116.809 229.44 116.809 226.304C116.809 223.584 117.289 221.152 118.249 219.008C119.209 216.832 120.569 215.12 122.329 213.872C124.121 212.592 126.233 211.952 128.665 211.952C130.297 211.952 131.737 212.304 132.985 213.008C134.233 213.68 135.177 214.688 135.817 216.032L137.497 205.232C137.881 202.896 139.273 201.728 141.673 201.728C142.825 201.728 143.657 202.096 144.169 202.832C144.713 203.536 144.873 204.56 144.649 205.904L140.377 232.736C139.993 235.2 138.617 236.432 136.249 236.432C135.161 236.432 134.361 236.08 133.849 235.376C133.369 234.672 133.209 233.712 133.369 232.496C132.473 233.744 131.353 234.736 130.009 235.472C128.665 236.176 127.193 236.528 125.593 236.528ZM128.521 231.104C129.801 231.104 130.889 230.736 131.785 230C132.681 229.232 133.369 228.208 133.849 226.928C134.329 225.616 134.569 224.144 134.569 222.512C134.569 220.848 134.169 219.584 133.369 218.72C132.601 217.824 131.529 217.376 130.153 217.376C128.233 217.376 126.745 218.192 125.689 219.824C124.633 221.456 124.105 223.488 124.105 225.92C124.105 227.584 124.489 228.864 125.257 229.76C126.057 230.656 127.145 231.104 128.521 231.104ZM157.722 236.528C154.074 236.528 151.226 235.552 149.178 233.6C147.162 231.616 146.154 228.976 146.154 225.68C146.154 222.768 146.778 220.288 148.026 218.24C149.274 216.192 150.922 214.64 152.97 213.584C155.05 212.496 157.274 211.952 159.642 211.952C163.29 211.952 166.138 212.944 168.186 214.928C170.234 216.88 171.258 219.488 171.258 222.752C171.258 225.696 170.618 228.192 169.338 230.24C168.09 232.288 166.442 233.856 164.394 234.944C162.346 236 160.122 236.528 157.722 236.528ZM157.914 231.104C159.802 231.104 161.274 230.288 162.33 228.656C163.418 227.024 163.962 224.976 163.962 222.512C163.962 220.848 163.562 219.584 162.762 218.72C161.962 217.824 160.874 217.376 159.498 217.376C157.578 217.376 156.09 218.192 155.034 219.824C153.978 221.456 153.45 223.488 153.45 225.92C153.45 227.584 153.834 228.864 154.602 229.76C155.402 230.656 156.506 231.104 157.914 231.104ZM185.562 236.528C182.17 236.528 179.722 235.632 178.218 233.84C176.714 232.016 176.186 229.68 176.634 226.832L178.074 217.856H176.442C174.522 217.856 173.562 217.088 173.562 215.552C173.562 214.56 173.882 213.792 174.522 213.248C175.162 212.704 176.042 212.432 177.162 212.432H178.89L179.562 208.448C179.882 206.208 181.178 205.088 183.45 205.088C184.666 205.088 185.546 205.44 186.09 206.144C186.666 206.848 186.858 207.824 186.666 209.072L186.138 212.432H190.266C191.194 212.432 191.914 212.624 192.426 213.008C192.938 213.392 193.194 213.952 193.194 214.688C193.194 215.584 192.89 216.336 192.282 216.944C191.706 217.552 190.906 217.856 189.882 217.856H185.322L183.93 226.448C183.674 227.952 183.85 229.024 184.458 229.664C185.066 230.304 185.914 230.624 187.002 230.624C187.546 230.624 187.978 230.592 188.298 230.528C188.618 230.432 188.954 230.384 189.306 230.384C189.818 230.384 190.186 230.528 190.41 230.816C190.666 231.072 190.794 231.584 190.794 232.352C190.794 233.664 190.57 234.576 190.122 235.088C189.706 235.6 189.13 235.952 188.394 236.144C187.978 236.272 187.514 236.368 187.002 236.432C186.49 236.496 186.01 236.528 185.562 236.528ZM205.501 236.528C203.037 236.528 200.893 236.08 199.069 235.184C197.245 234.256 195.837 232.992 194.845 231.392C193.853 229.76 193.357 227.856 193.357 225.68C193.357 222.992 193.917 220.624 195.037 218.576C196.189 216.496 197.757 214.88 199.741 213.728C201.757 212.544 204.045 211.952 206.605 211.952C209.261 211.952 211.373 212.544 212.941 213.728C214.509 214.88 215.581 216.384 216.157 218.24C216.733 220.064 216.909 222 216.685 224.048C216.589 224.784 216.381 225.264 216.061 225.488C215.741 225.68 215.309 225.776 214.765 225.776H200.077C200.109 227.472 200.653 228.784 201.709 229.712C202.765 230.64 204.269 231.104 206.221 231.104C207.053 231.104 207.949 231.008 208.909 230.816C209.901 230.624 210.781 230.336 211.549 229.952C212.445 229.504 213.181 229.424 213.757 229.712C214.365 229.968 214.765 230.416 214.957 231.056C215.149 231.696 215.101 232.368 214.813 233.072C214.557 233.744 214.029 234.288 213.229 234.704C212.109 235.344 210.845 235.808 209.437 236.096C208.029 236.384 206.717 236.528 205.501 236.528ZM206.557 216.752C204.829 216.752 203.485 217.28 202.525 218.336C201.565 219.36 200.925 220.592 200.605 222.032H211.069C211.165 220.528 210.845 219.28 210.109 218.288C209.405 217.264 208.221 216.752 206.557 216.752ZM229.061 236.528C227.557 236.528 226.085 236.384 224.645 236.096C223.237 235.84 222.021 235.472 220.997 234.992C220.101 234.608 219.509 234.08 219.221 233.408C218.965 232.704 218.949 232.032 219.173 231.392C219.429 230.752 219.861 230.288 220.469 230C221.077 229.68 221.813 229.712 222.677 230.096C224.757 231.056 226.869 231.536 229.013 231.536C230.389 231.536 231.413 231.296 232.085 230.816C232.789 230.336 233.141 229.728 233.141 228.992C233.141 227.936 232.373 227.264 230.837 226.976L226.469 226.16C224.613 225.808 223.173 225.104 222.149 224.048C221.125 222.992 220.613 221.648 220.613 220.016C220.613 218.576 221.029 217.248 221.861 216.032C222.725 214.784 223.989 213.792 225.653 213.056C227.317 212.32 229.365 211.952 231.797 211.952C232.853 211.952 234.005 212.08 235.253 212.336C236.501 212.592 237.605 212.96 238.565 213.44C239.429 213.856 239.989 214.4 240.245 215.072C240.501 215.712 240.501 216.336 240.245 216.944C239.989 217.552 239.541 217.984 238.901 218.24C238.261 218.496 237.509 218.448 236.645 218.096C234.981 217.296 233.237 216.896 231.413 216.896C229.973 216.896 228.885 217.152 228.149 217.664C227.445 218.176 227.093 218.832 227.093 219.632C227.093 220.08 227.237 220.48 227.525 220.832C227.845 221.152 228.357 221.376 229.061 221.504L233.381 222.32C237.541 223.088 239.621 225.136 239.621 228.464C239.621 231.056 238.645 233.056 236.693 234.464C234.773 235.84 232.229 236.528 229.061 236.528ZM247.934 225.296C247.198 225.296 246.638 225.088 246.254 224.672C245.87 224.256 245.694 223.568 245.726 222.608L246.83 206.048C246.99 203.168 248.446 201.728 251.198 201.728C252.638 201.728 253.678 202.192 254.318 203.12C254.958 204.048 255.07 205.28 254.654 206.816L250.574 223.088C250.158 224.56 249.278 225.296 247.934 225.296ZM246.782 236.24C245.502 236.24 244.494 235.856 243.758 235.088C243.022 234.32 242.654 233.328 242.654 232.112C242.654 230.928 243.022 229.968 243.758 229.232C244.494 228.464 245.502 228.08 246.782 228.08C248.062 228.08 249.07 228.464 249.806 229.232C250.542 229.968 250.91 230.928 250.91 232.112C250.91 233.328 250.542 234.32 249.806 235.088C249.07 235.856 248.062 236.24 246.782 236.24Z" fill="#1F2937"/>
</svg>
