<svg width="381" height="375" viewBox="0 0 381 375" fill="none" xmlns="http://www.w3.org/2000/svg">
<rect width="381" height="375" rx="64" fill="white"/>
<path d="M176.25 87.75V89.555C172.307 87.9875 168.08 87.18 163.852 87.18C157.107 87.18 150.362 89.2225 144.615 93.3075C142.192 95.0175 141.907 98.485 143.997 100.575L156.205 112.782H161.477V118.055C165.562 122.14 170.882 124.277 176.25 124.515V135.25H166.75C164.137 135.25 162 137.387 162 140V149.5C162 154.725 166.275 159 171.5 159H219C226.885 159 233.25 152.635 233.25 144.75V87.75C233.25 85.1375 231.112 83 228.5 83H181C178.387 83 176.25 85.1375 176.25 87.75ZM170.977 113.447V103.235H160.147L155.207 98.295C157.915 97.25 160.86 96.68 163.852 96.68C170.217 96.68 176.155 99.15 180.668 103.615L187.365 110.312L186.415 111.262C183.993 113.685 180.762 115.062 177.295 115.062C175.062 115.062 172.877 114.492 170.977 113.447ZM223.75 144.75C223.75 147.362 221.612 149.5 219 149.5C216.387 149.5 214.25 147.362 214.25 144.75V140C214.25 137.387 212.112 135.25 209.5 135.25H185.75V122.947C188.457 121.855 190.975 120.24 193.16 118.055L194.11 117.105L207.552 130.5H214.25V123.802L185.75 95.445V92.5H223.75V144.75Z" fill="#1ABC86"/>
<path d="M110.316 246.432C109.004 246.432 108.044 246.016 107.436 245.184C106.828 244.32 106.892 243.28 107.628 242.064L124.812 214.272C125.356 213.376 125.948 212.736 126.588 212.352C127.228 211.936 128.044 211.728 129.036 211.728C131.02 211.728 132.316 212.752 132.924 214.8L141.036 241.92C141.484 243.424 141.388 244.56 140.748 245.328C140.14 246.064 139.26 246.432 138.108 246.432C137.052 246.432 136.236 246.176 135.66 245.664C135.084 245.12 134.652 244.288 134.364 243.168L133.212 238.656H117.276L114.012 244.272C113.148 245.712 111.916 246.432 110.316 246.432ZM128.172 220.08L120.684 232.848H131.628L128.268 220.08H128.172ZM159.513 246.528C157.849 246.528 156.377 246.176 155.097 245.472C153.817 244.736 152.873 243.664 152.265 242.256L152.169 242.784C151.817 245.216 150.489 246.432 148.185 246.432C147.033 246.432 146.185 246.064 145.641 245.328C145.129 244.56 144.969 243.52 145.161 242.208L149.433 215.376C149.817 212.944 151.209 211.728 153.609 211.728C154.729 211.728 155.545 212.112 156.057 212.88C156.601 213.616 156.777 214.64 156.585 215.952L155.049 225.648C155.945 224.464 157.033 223.552 158.313 222.912C159.593 222.272 161.017 221.952 162.585 221.952C165.241 221.952 167.369 222.864 168.969 224.688C170.569 226.512 171.369 228.992 171.369 232.128C171.369 234.848 170.889 237.296 169.929 239.472C168.969 241.648 167.593 243.376 165.801 244.656C164.041 245.904 161.945 246.528 159.513 246.528ZM158.025 241.104C159.945 241.104 161.433 240.288 162.489 238.656C163.545 237.024 164.073 234.976 164.073 232.512C164.073 230.848 163.673 229.584 162.873 228.72C162.105 227.824 161.033 227.376 159.657 227.376C157.737 227.376 156.249 228.192 155.193 229.824C154.137 231.456 153.609 233.488 153.609 235.92C153.609 237.584 153.993 238.864 154.761 239.76C155.561 240.656 156.649 241.104 158.025 241.104ZM183.866 246.528C182.362 246.528 180.89 246.384 179.45 246.096C178.042 245.84 176.826 245.472 175.802 244.992C174.906 244.608 174.314 244.08 174.026 243.408C173.77 242.704 173.754 242.032 173.978 241.392C174.234 240.752 174.666 240.288 175.274 240C175.882 239.68 176.618 239.712 177.482 240.096C179.562 241.056 181.674 241.536 183.818 241.536C185.194 241.536 186.218 241.296 186.89 240.816C187.594 240.336 187.946 239.728 187.946 238.992C187.946 237.936 187.178 237.264 185.642 236.976L181.274 236.16C179.418 235.808 177.978 235.104 176.954 234.048C175.93 232.992 175.418 231.648 175.418 230.016C175.418 228.576 175.834 227.248 176.666 226.032C177.53 224.784 178.794 223.792 180.458 223.056C182.122 222.32 184.17 221.952 186.602 221.952C187.658 221.952 188.81 222.08 190.058 222.336C191.306 222.592 192.41 222.96 193.37 223.44C194.234 223.856 194.794 224.4 195.05 225.072C195.306 225.712 195.306 226.336 195.05 226.944C194.794 227.552 194.346 227.984 193.706 228.24C193.066 228.496 192.314 228.448 191.45 228.096C189.786 227.296 188.042 226.896 186.218 226.896C184.778 226.896 183.69 227.152 182.954 227.664C182.25 228.176 181.898 228.832 181.898 229.632C181.898 230.08 182.042 230.48 182.33 230.832C182.65 231.152 183.162 231.376 183.866 231.504L188.186 232.32C192.346 233.088 194.426 235.136 194.426 238.464C194.426 241.056 193.45 243.056 191.498 244.464C189.578 245.84 187.034 246.528 183.866 246.528ZM205.907 246.528C203.411 246.528 201.475 245.728 200.099 244.128C198.723 242.496 198.323 239.936 198.899 236.448L200.675 225.408C200.995 223.168 202.307 222.048 204.611 222.048C205.795 222.048 206.675 222.4 207.251 223.104C207.827 223.776 208.019 224.752 207.827 226.032L206.195 236.352C205.971 237.856 206.083 238.992 206.531 239.76C206.979 240.496 207.811 240.864 209.027 240.864C210.563 240.864 211.811 240.352 212.771 239.328C213.763 238.272 214.403 236.832 214.691 235.008L216.227 225.408C216.547 223.168 217.843 222.048 220.115 222.048C221.363 222.048 222.259 222.4 222.803 223.104C223.379 223.808 223.555 224.784 223.331 226.032L220.691 243.024C220.339 245.296 219.027 246.432 216.755 246.432C214.387 246.432 213.379 245.184 213.731 242.688L213.779 242.304C212.883 243.712 211.763 244.768 210.419 245.472C209.075 246.176 207.571 246.528 205.907 246.528ZM229.419 246.432C228.235 246.432 227.371 246.08 226.827 245.376C226.315 244.64 226.171 243.632 226.395 242.352L229.035 225.504C229.387 223.2 230.731 222.048 233.067 222.048C234.219 222.048 235.051 222.4 235.563 223.104C236.075 223.808 236.235 224.8 236.043 226.08L235.947 226.464C236.715 225.088 237.739 224.016 239.019 223.248C240.299 222.448 241.755 222.016 243.387 221.952C244.347 221.92 245.019 222.096 245.403 222.48C245.787 222.864 245.979 223.472 245.979 224.304C245.979 225.616 245.691 226.576 245.115 227.184C244.539 227.76 243.627 228.112 242.379 228.24L240.795 228.384C238.875 228.576 237.499 229.152 236.667 230.112C235.867 231.04 235.323 232.4 235.035 234.192L233.643 242.928C233.291 245.264 231.883 246.432 229.419 246.432ZM254.539 246.528C251.883 246.528 249.755 245.616 248.155 243.792C246.555 241.936 245.755 239.44 245.755 236.304C245.755 233.584 246.235 231.152 247.195 229.008C248.155 226.832 249.515 225.12 251.275 223.872C253.067 222.592 255.179 221.952 257.611 221.952C259.243 221.952 260.683 222.304 261.931 223.008C263.179 223.68 264.123 224.688 264.763 226.032L266.443 215.232C266.827 212.896 268.219 211.728 270.619 211.728C271.771 211.728 272.603 212.096 273.115 212.832C273.659 213.536 273.819 214.56 273.595 215.904L269.323 242.736C268.939 245.2 267.563 246.432 265.195 246.432C264.107 246.432 263.307 246.08 262.795 245.376C262.315 244.672 262.155 243.712 262.315 242.496C261.419 243.744 260.299 244.736 258.955 245.472C257.611 246.176 256.139 246.528 254.539 246.528ZM257.467 241.104C258.747 241.104 259.835 240.736 260.731 240C261.627 239.232 262.315 238.208 262.795 236.928C263.275 235.616 263.515 234.144 263.515 232.512C263.515 230.848 263.115 229.584 262.315 228.72C261.547 227.824 260.475 227.376 259.099 227.376C257.179 227.376 255.691 228.192 254.635 229.824C253.579 231.456 253.051 233.488 253.051 235.92C253.051 237.584 253.435 238.864 254.203 239.76C255.003 240.656 256.091 241.104 257.467 241.104ZM67.1211 300.432C65.8091 300.432 64.8491 300.016 64.2411 299.184C63.6331 298.32 63.6971 297.28 64.4331 296.064L81.6171 268.272C82.1611 267.376 82.7531 266.736 83.3931 266.352C84.0331 265.936 84.8491 265.728 85.8411 265.728C87.8251 265.728 89.1211 266.752 89.7291 268.8L97.8411 295.92C98.2891 297.424 98.1931 298.56 97.5531 299.328C96.9451 300.064 96.0651 300.432 94.9131 300.432C93.8571 300.432 93.0411 300.176 92.4651 299.664C91.8891 299.12 91.4571 298.288 91.1691 297.168L90.0171 292.656H74.0811L70.8171 298.272C69.9531 299.712 68.7211 300.432 67.1211 300.432ZM84.9771 274.08L77.4891 286.848H88.4331L85.0731 274.08H84.9771ZM104.942 300.336C103.822 300.336 102.99 299.968 102.446 299.232C101.934 298.496 101.79 297.456 102.014 296.112L104.606 279.648C104.958 277.248 106.334 276.048 108.734 276.048C109.822 276.048 110.622 276.384 111.134 277.056C111.678 277.696 111.838 278.656 111.614 279.936V280.032C113.342 277.312 115.998 275.952 119.582 275.952C122.142 275.952 124.094 276.752 125.438 278.352C126.814 279.952 127.23 282.496 126.686 285.984L124.958 296.736C124.606 299.136 123.214 300.336 120.782 300.336C119.662 300.336 118.83 299.968 118.286 299.232C117.774 298.496 117.614 297.456 117.806 296.112L119.39 286.128C119.902 283.088 118.926 281.568 116.462 281.568C114.83 281.568 113.518 282.096 112.526 283.152C111.534 284.176 110.894 285.6 110.606 287.424L109.118 296.736C108.766 299.136 107.374 300.336 104.942 300.336ZM142.705 300.528C140.241 300.528 138.097 300.08 136.273 299.184C134.449 298.256 133.041 296.992 132.049 295.392C131.057 293.76 130.561 291.856 130.561 289.68C130.561 286.992 131.121 284.624 132.241 282.576C133.393 280.496 134.961 278.88 136.945 277.728C138.961 276.544 141.249 275.952 143.809 275.952C146.465 275.952 148.577 276.544 150.145 277.728C151.713 278.88 152.785 280.384 153.361 282.24C153.937 284.064 154.113 286 153.889 288.048C153.793 288.784 153.585 289.264 153.265 289.488C152.945 289.68 152.513 289.776 151.969 289.776H137.281C137.313 291.472 137.857 292.784 138.913 293.712C139.969 294.64 141.473 295.104 143.425 295.104C144.257 295.104 145.153 295.008 146.113 294.816C147.105 294.624 147.985 294.336 148.753 293.952C149.649 293.504 150.385 293.424 150.961 293.712C151.569 293.968 151.969 294.416 152.161 295.056C152.353 295.696 152.305 296.368 152.017 297.072C151.761 297.744 151.233 298.288 150.433 298.704C149.313 299.344 148.049 299.808 146.641 300.096C145.233 300.384 143.921 300.528 142.705 300.528ZM143.761 280.752C142.033 280.752 140.689 281.28 139.729 282.336C138.769 283.36 138.129 284.592 137.809 286.032H148.273C148.369 284.528 148.049 283.28 147.313 282.288C146.609 281.264 145.425 280.752 143.761 280.752ZM168.664 300.528C164.728 300.528 161.784 299.536 159.832 297.552C157.88 295.536 156.904 292.896 156.904 289.632C156.904 287.872 157.176 286.176 157.72 284.544C158.296 282.912 159.144 281.456 160.264 280.176C161.384 278.864 162.808 277.84 164.536 277.104C166.296 276.336 168.344 275.952 170.68 275.952C171.8 275.952 172.84 276.064 173.8 276.288C174.792 276.48 175.72 276.768 176.584 277.152C177.544 277.536 178.152 278.08 178.408 278.784C178.696 279.488 178.712 280.192 178.456 280.896C178.232 281.568 177.816 282.08 177.208 282.432C176.632 282.752 175.96 282.752 175.192 282.432C173.88 281.792 172.552 281.472 171.208 281.472C169.512 281.472 168.152 281.872 167.128 282.672C166.136 283.472 165.416 284.496 164.968 285.744C164.52 286.96 164.296 288.224 164.296 289.536C164.296 291.168 164.712 292.48 165.544 293.472C166.408 294.464 167.816 294.96 169.768 294.96C170.248 294.96 170.808 294.896 171.448 294.768C172.12 294.608 172.808 294.368 173.512 294.048C174.184 293.76 174.776 293.776 175.288 294.096C175.832 294.416 176.216 294.896 176.44 295.536C176.664 296.176 176.648 296.832 176.392 297.504C176.168 298.176 175.608 298.736 174.712 299.184C173.912 299.6 172.936 299.92 171.784 300.144C170.664 300.4 169.624 300.528 168.664 300.528ZM188.093 300.528C185.437 300.528 183.309 299.616 181.709 297.792C180.109 295.936 179.309 293.44 179.309 290.304C179.309 287.584 179.789 285.152 180.749 283.008C181.709 280.832 183.069 279.12 184.829 277.872C186.621 276.592 188.733 275.952 191.165 275.952C192.797 275.952 194.237 276.304 195.485 277.008C196.733 277.68 197.677 278.688 198.317 280.032L199.997 269.232C200.381 266.896 201.773 265.728 204.173 265.728C205.325 265.728 206.157 266.096 206.669 266.832C207.213 267.536 207.373 268.56 207.149 269.904L202.877 296.736C202.493 299.2 201.117 300.432 198.749 300.432C197.661 300.432 196.861 300.08 196.349 299.376C195.869 298.672 195.709 297.712 195.869 296.496C194.973 297.744 193.853 298.736 192.509 299.472C191.165 300.176 189.693 300.528 188.093 300.528ZM191.021 295.104C192.301 295.104 193.389 294.736 194.285 294C195.181 293.232 195.869 292.208 196.349 290.928C196.829 289.616 197.069 288.144 197.069 286.512C197.069 284.848 196.669 283.584 195.869 282.72C195.101 281.824 194.029 281.376 192.653 281.376C190.733 281.376 189.245 282.192 188.189 283.824C187.133 285.456 186.605 287.488 186.605 289.92C186.605 291.584 186.989 292.864 187.757 293.76C188.557 294.656 189.645 295.104 191.021 295.104ZM220.222 300.528C216.574 300.528 213.726 299.552 211.678 297.6C209.662 295.616 208.654 292.976 208.654 289.68C208.654 286.768 209.278 284.288 210.526 282.24C211.774 280.192 213.422 278.64 215.47 277.584C217.55 276.496 219.774 275.952 222.142 275.952C225.79 275.952 228.638 276.944 230.686 278.928C232.734 280.88 233.758 283.488 233.758 286.752C233.758 289.696 233.118 292.192 231.838 294.24C230.59 296.288 228.942 297.856 226.894 298.944C224.846 300 222.622 300.528 220.222 300.528ZM220.414 295.104C222.302 295.104 223.774 294.288 224.83 292.656C225.918 291.024 226.462 288.976 226.462 286.512C226.462 284.848 226.062 283.584 225.262 282.72C224.462 281.824 223.374 281.376 221.998 281.376C220.078 281.376 218.59 282.192 217.534 283.824C216.478 285.456 215.95 287.488 215.95 289.92C215.95 291.584 216.334 292.864 217.102 293.76C217.902 294.656 219.006 295.104 220.414 295.104ZM248.062 300.528C244.67 300.528 242.222 299.632 240.718 297.84C239.214 296.016 238.686 293.68 239.134 290.832L240.574 281.856H238.942C237.022 281.856 236.062 281.088 236.062 279.552C236.062 278.56 236.382 277.792 237.022 277.248C237.662 276.704 238.542 276.432 239.662 276.432H241.39L242.062 272.448C242.382 270.208 243.678 269.088 245.95 269.088C247.166 269.088 248.046 269.44 248.59 270.144C249.166 270.848 249.358 271.824 249.166 273.072L248.638 276.432H252.766C253.694 276.432 254.414 276.624 254.926 277.008C255.438 277.392 255.694 277.952 255.694 278.688C255.694 279.584 255.39 280.336 254.782 280.944C254.206 281.552 253.406 281.856 252.382 281.856H247.822L246.43 290.448C246.174 291.952 246.35 293.024 246.958 293.664C247.566 294.304 248.414 294.624 249.502 294.624C250.046 294.624 250.478 294.592 250.798 294.528C251.118 294.432 251.454 294.384 251.806 294.384C252.318 294.384 252.686 294.528 252.91 294.816C253.166 295.072 253.294 295.584 253.294 296.352C253.294 297.664 253.07 298.576 252.622 299.088C252.206 299.6 251.63 299.952 250.894 300.144C250.478 300.272 250.014 300.368 249.502 300.432C248.99 300.496 248.51 300.528 248.062 300.528ZM268.001 300.528C265.537 300.528 263.393 300.08 261.569 299.184C259.745 298.256 258.337 296.992 257.345 295.392C256.353 293.76 255.857 291.856 255.857 289.68C255.857 286.992 256.417 284.624 257.537 282.576C258.689 280.496 260.257 278.88 262.241 277.728C264.257 276.544 266.545 275.952 269.105 275.952C271.761 275.952 273.873 276.544 275.441 277.728C277.009 278.88 278.081 280.384 278.657 282.24C279.233 284.064 279.409 286 279.185 288.048C279.089 288.784 278.881 289.264 278.561 289.488C278.241 289.68 277.809 289.776 277.265 289.776H262.577C262.609 291.472 263.153 292.784 264.209 293.712C265.265 294.64 266.769 295.104 268.721 295.104C269.553 295.104 270.449 295.008 271.409 294.816C272.401 294.624 273.281 294.336 274.049 293.952C274.945 293.504 275.681 293.424 276.257 293.712C276.865 293.968 277.265 294.416 277.457 295.056C277.649 295.696 277.601 296.368 277.313 297.072C277.057 297.744 276.529 298.288 275.729 298.704C274.609 299.344 273.345 299.808 271.937 300.096C270.529 300.384 269.217 300.528 268.001 300.528ZM269.057 280.752C267.329 280.752 265.985 281.28 265.025 282.336C264.065 283.36 263.425 284.592 263.105 286.032H273.569C273.665 284.528 273.345 283.28 272.609 282.288C271.905 281.264 270.721 280.752 269.057 280.752ZM291.561 300.528C290.057 300.528 288.585 300.384 287.145 300.096C285.737 299.84 284.521 299.472 283.497 298.992C282.601 298.608 282.009 298.08 281.721 297.408C281.465 296.704 281.449 296.032 281.673 295.392C281.929 294.752 282.361 294.288 282.969 294C283.577 293.68 284.313 293.712 285.177 294.096C287.257 295.056 289.369 295.536 291.513 295.536C292.889 295.536 293.913 295.296 294.585 294.816C295.289 294.336 295.641 293.728 295.641 292.992C295.641 291.936 294.873 291.264 293.337 290.976L288.969 290.16C287.113 289.808 285.673 289.104 284.649 288.048C283.625 286.992 283.113 285.648 283.113 284.016C283.113 282.576 283.529 281.248 284.361 280.032C285.225 278.784 286.489 277.792 288.153 277.056C289.817 276.32 291.865 275.952 294.297 275.952C295.353 275.952 296.505 276.08 297.753 276.336C299.001 276.592 300.105 276.96 301.065 277.44C301.929 277.856 302.489 278.4 302.745 279.072C303.001 279.712 303.001 280.336 302.745 280.944C302.489 281.552 302.041 281.984 301.401 282.24C300.761 282.496 300.009 282.448 299.145 282.096C297.481 281.296 295.737 280.896 293.913 280.896C292.473 280.896 291.385 281.152 290.649 281.664C289.945 282.176 289.593 282.832 289.593 283.632C289.593 284.08 289.737 284.48 290.025 284.832C290.345 285.152 290.857 285.376 291.561 285.504L295.881 286.32C300.041 287.088 302.121 289.136 302.121 292.464C302.121 295.056 301.145 297.056 299.193 298.464C297.273 299.84 294.729 300.528 291.561 300.528ZM310.434 289.296C309.698 289.296 309.138 289.088 308.754 288.672C308.37 288.256 308.194 287.568 308.226 286.608L309.33 270.048C309.49 267.168 310.946 265.728 313.698 265.728C315.138 265.728 316.178 266.192 316.818 267.12C317.458 268.048 317.57 269.28 317.154 270.816L313.074 287.088C312.658 288.56 311.778 289.296 310.434 289.296ZM309.282 300.24C308.002 300.24 306.994 299.856 306.258 299.088C305.522 298.32 305.154 297.328 305.154 296.112C305.154 294.928 305.522 293.968 306.258 293.232C306.994 292.464 308.002 292.08 309.282 292.08C310.562 292.08 311.57 292.464 312.306 293.232C313.042 293.968 313.41 294.928 313.41 296.112C313.41 297.328 313.042 298.32 312.306 299.088C311.57 299.856 310.562 300.24 309.282 300.24Z" fill="#1F2937"/>
</svg>
